<svg width="31" height="32" viewBox="0 0 31 32" fill="none" xmlns="http://www.w3.org/2000/svg">
<path d="M13.0652 2.75934H6.51553C4.58492 2.75934 3.6196 2.75934 2.88221 3.1441C2.23357 3.48254 1.70621 4.02258 1.37573 4.6868C1 5.44193 1 6.43045 1 8.40747V25.3519C1 27.3289 1 28.3175 1.37573 29.0726C1.70621 29.7368 2.23357 30.2769 2.88221 30.6152C3.6196 31 4.58492 31 6.51553 31H23.0621C24.9927 31 25.9581 31 26.6955 30.6152C27.3441 30.2769 27.8715 29.7368 28.2019 29.0726C28.5776 28.3175 28.5776 27.3289 28.5776 25.3519V17.7622M20.8214 5.4069L25.6965 10.3992M12.6562 13.7684L24.1152 2.03394C25.4614 0.655354 27.6441 0.655354 28.9903 2.03394C30.3366 3.41253 30.3366 5.64765 28.9903 7.02624L17.1629 19.1379C15.8502 20.4823 15.1939 21.1544 14.4462 21.6889C13.7826 22.1635 13.0668 22.5564 12.3137 22.86C11.4652 23.202 10.5553 23.39 8.73541 23.7662L7.89441 23.9398L7.97619 23.3535C8.2656 21.279 8.41032 20.2417 8.73947 19.2732C9.03156 18.4138 9.43057 17.5968 9.92664 16.8419C10.4857 15.9911 11.2092 15.2502 12.6562 13.7684Z" stroke="white" stroke-width="2" stroke-linecap="round" stroke-linejoin="round"/>
</svg>
