<svg width="36" height="36" viewBox="0 0 36 36" fill="none" xmlns="http://www.w3.org/2000/svg">
<path d="M18 36C27.9411 36 36 27.9411 36 18C36 8.05887 27.9411 0 18 0C8.05887 0 0 8.05887 0 18C0 27.9411 8.05887 36 18 36Z" fill="#AA8DD8"/>
<path d="M10 4.00004C7.42 4.00004 4.369 1.53404 3.414 0.586043C2.843 0.0140429 1.981 -0.156957 1.235 0.153043C0.487 0.462043 0 1.19104 0 2.00004C0 5.45904 1.672 12 8 12C8.757 12 9.45 11.572 9.789 10.894L11.789 6.89404C12.099 6.27404 12.066 5.53804 11.701 4.94804C11.337 4.35904 10.693 4.00004 10 4.00004ZM34.766 0.153043C34.016 -0.157957 33.159 0.0140429 32.586 0.587043C31.7 1.47204 28.589 4.00004 26 4.00004C25.307 4.00004 24.663 4.35904 24.299 4.94904C23.935 5.53804 23.902 6.27504 24.211 6.89504L26.211 10.895C26.55 11.572 27.242 12 28 12C34.328 12 36 5.45904 36 2.00004C36 1.19104 35.513 0.462043 34.766 0.153043Z" fill="#AA8DD8"/>
<path d="M27.335 25.629C27.157 25.468 26.891 25.458 26.7 25.6C26.661 25.629 22.778 28.5 18 28.5C13.234 28.5 9.33798 25.629 9.29998 25.6C9.10898 25.458 8.84298 25.47 8.66498 25.629C8.48798 25.789 8.44798 26.053 8.57098 26.257C8.69998 26.472 11.788 31.5 18 31.5C24.212 31.5 27.301 26.472 27.429 26.257C27.552 26.052 27.513 25.789 27.335 25.629ZM15.707 18.293C12.452 15.038 7.22098 15 6.99998 15C6.44798 15 6.00098 15.447 6.00098 15.998C5.99998 16.55 6.44698 16.999 6.99898 17C7.02798 17 8.92398 17.022 10.982 17.737C10.389 18.377 9.99998 19.371 9.99998 20.5C9.99998 22.434 11.119 24 12.5 24C13.881 24 15 22.434 15 20.5C15 20.326 14.981 20.16 14.963 19.993C14.976 19.993 14.988 20 15 20C15.256 20 15.512 19.902 15.707 19.707C16.098 19.316 16.098 18.684 15.707 18.293ZM29 15C28.779 15 23.549 15.038 20.293 18.293C19.902 18.684 19.902 19.316 20.293 19.707C20.488 19.902 20.744 20 21 20C21.013 20 21.024 19.993 21.036 19.993C21.02 20.16 21 20.326 21 20.5C21 22.434 22.119 24 23.5 24C24.881 24 26 22.434 26 20.5C26 19.371 25.611 18.377 25.018 17.737C27.076 17.022 28.972 17 29.002 17C29.553 16.999 30 16.55 29.999 15.998C29.998 15.447 29.552 15 29 15Z" fill="#553986"/>
</svg>
