<svg width="69" height="20" viewBox="0 0 69 20" fill="none" xmlns="http://www.w3.org/2000/svg">
<path d="M7.42188 1.5625C7.53125 1.76562 7.58594 2 7.58594 2.26562C7.58594 2.5 7.53906 2.75 7.44531 3.01562C7.35156 3.28125 7.20312 3.48438 7 3.625C6.85938 3.9375 6.71875 4.19531 6.57812 4.39844C6.45312 4.58594 6.32812 4.77344 6.20312 4.96094C6.15625 5.07031 6.10938 5.17969 6.0625 5.28906C6.01562 5.38281 5.95312 5.48438 5.875 5.59375C5.82812 5.67188 5.72656 5.82812 5.57031 6.0625C5.41406 6.29688 5.25 6.54688 5.07812 6.8125C4.92188 7.0625 4.78125 7.30469 4.65625 7.53906C4.53125 7.77344 4.46875 7.92188 4.46875 7.98438C4.46875 8.04688 4.53906 8.125 4.67969 8.21875C4.83594 8.3125 4.9375 8.38281 4.98438 8.42969C5.0625 8.50781 5.13281 8.58594 5.19531 8.66406C5.27344 8.74219 5.35156 8.82031 5.42969 8.89844C5.60156 9.03906 5.76562 9.17969 5.92188 9.32031C6.09375 9.46094 6.26562 9.61719 6.4375 9.78906C6.76562 10.0859 7.10938 10.3672 7.46875 10.6328C7.82812 10.8984 8.14844 11.2109 8.42969 11.5703C8.69531 11.6484 8.86719 11.8359 8.94531 12.1328C9.02344 12.4297 9.04688 12.7109 9.01562 12.9766C9.04688 13.0234 9.07031 13.0703 9.08594 13.1172C9.11719 13.1641 9.14844 13.2188 9.17969 13.2812C9.17969 13.5312 9.14062 13.7188 9.0625 13.8438C9 13.9531 8.92969 14.0938 8.85156 14.2656C8.77344 14.4219 8.71875 14.5781 8.6875 14.7344C8.67188 14.8906 8.625 15.0312 8.54688 15.1562C8.51562 15.2031 8.46875 15.2422 8.40625 15.2734C8.35938 15.3047 8.32031 15.3516 8.28906 15.4141C8.22656 15.5234 8.17188 15.6562 8.125 15.8125C8.09375 15.9531 8.04688 16.0859 7.98438 16.2109C7.9375 16.3359 7.875 16.4609 7.79688 16.5859C7.73438 16.7109 7.67969 16.8359 7.63281 16.9609C7.60156 17.0391 7.57031 17.1328 7.53906 17.2422C7.52344 17.3516 7.45312 17.4297 7.32812 17.4766C7.25 17.7578 7.14062 18.0312 7 18.2969C6.875 18.5625 6.77344 18.8359 6.69531 19.1172C6.55469 19.1641 6.375 19.25 6.15625 19.375C5.95312 19.5156 5.78906 19.5859 5.66406 19.5859C5.61719 19.5859 5.57812 19.5625 5.54688 19.5156C5.51562 19.4688 5.46875 19.4297 5.40625 19.3984C5.375 19.3828 5.32812 19.3828 5.26562 19.3984C5.21875 19.4141 5.17969 19.4219 5.14844 19.4219C5.07031 19.4219 5.00781 19.3906 4.96094 19.3281C4.92969 19.2656 4.88281 19.2188 4.82031 19.1875C4.77344 19.2031 4.72656 19.2188 4.67969 19.2344C4.63281 19.25 4.58594 19.2578 4.53906 19.2578C4.42969 19.2578 4.36719 19.2266 4.35156 19.1641C4.33594 19.1172 4.28906 19.0703 4.21094 19.0234C4.02344 18.9297 3.91406 18.8438 3.88281 18.7656C3.85156 18.6875 3.80469 18.6328 3.74219 18.6016C3.85156 18.1953 4 17.8125 4.1875 17.4531C4.375 17.0781 4.55469 16.7031 4.72656 16.3281C4.77344 16.2031 4.82812 16.0859 4.89062 15.9766C4.96875 15.8672 5.03906 15.75 5.10156 15.625C5.14844 15.5156 5.21875 15.375 5.3125 15.2031C5.40625 15.0312 5.49219 14.8516 5.57031 14.6641C5.64844 14.4766 5.71875 14.3047 5.78125 14.1484C5.84375 13.9766 5.875 13.8359 5.875 13.7266C5.875 13.5078 5.8125 13.3438 5.6875 13.2344C5.23438 12.8594 4.80469 12.4766 4.39844 12.0859C4.00781 11.6953 3.59375 11.2969 3.15625 10.8906C2.875 10.6406 2.57031 10.3828 2.24219 10.1172C2.17969 10.0703 2.13281 10 2.10156 9.90625C2.07031 9.8125 2.02344 9.72656 1.96094 9.64844C1.92969 9.58594 1.88281 9.53906 1.82031 9.50781C1.75781 9.47656 1.71094 9.42969 1.67969 9.36719C1.63281 9.30469 1.60156 9.23438 1.58594 9.15625C1.57031 9.0625 1.52344 8.99219 1.44531 8.94531C1.36719 8.86719 1.27344 8.82031 1.16406 8.80469C1.05469 8.78906 0.960938 8.74219 0.882812 8.66406C0.929688 8.61719 0.953125 8.57031 0.953125 8.52344C0.9375 8.46094 0.929688 8.40625 0.929688 8.35938C0.929688 8.25 0.976562 8.17188 1.07031 8.125C1.16406 8.07812 1.21094 7.99219 1.21094 7.86719C1.27344 7.74219 1.32031 7.66406 1.35156 7.63281C1.52344 7.21094 1.71875 6.80469 1.9375 6.41406C2.15625 6.02344 2.38281 5.63281 2.61719 5.24219C2.69531 5.11719 2.76562 5 2.82812 4.89062C2.90625 4.76562 2.98438 4.64062 3.0625 4.51562C3.10938 4.40625 3.14844 4.3125 3.17969 4.23438C3.22656 4.14062 3.28906 4.05469 3.36719 3.97656C3.58594 3.72656 3.76562 3.49219 3.90625 3.27344C4.0625 3.05469 4.17969 2.78906 4.25781 2.47656C4.27344 2.39844 4.30469 2.28906 4.35156 2.14844C4.39844 2.00781 4.45312 1.86719 4.51562 1.72656C4.59375 1.58594 4.67188 1.46094 4.75 1.35156C4.82812 1.24219 4.91406 1.1875 5.00781 1.1875C5.08594 1.1875 5.19531 1.21875 5.33594 1.28125C5.49219 1.34375 5.625 1.39062 5.73438 1.42188C5.82812 1.45313 5.92188 1.48437 6.01562 1.51562C6.125 1.53125 6.22656 1.53906 6.32031 1.53906C6.38281 1.53906 6.44531 1.52344 6.50781 1.49219C6.57031 1.44531 6.64062 1.42188 6.71875 1.42188C6.84375 1.42188 6.96094 1.44531 7.07031 1.49219C7.17969 1.52344 7.29688 1.54688 7.42188 1.5625ZM12.7422 1.96094C12.8047 1.94531 12.8594 1.92188 12.9062 1.89062C12.9531 1.85937 13.0078 1.84375 13.0703 1.84375C13.1172 1.85937 13.1484 1.89062 13.1641 1.9375C13.1953 1.98438 13.2344 2.02344 13.2812 2.05469C13.3281 2.02344 13.3672 1.99219 13.3984 1.96094C13.4453 1.92969 13.4922 1.90625 13.5391 1.89062C13.6953 1.9375 13.7812 2.01563 13.7969 2.125C13.875 2.15625 13.9453 2.19531 14.0078 2.24219C14.0703 2.27344 14.1406 2.29688 14.2188 2.3125C14.25 2.375 14.2891 2.42187 14.3359 2.45312C14.3828 2.48438 14.4375 2.53125 14.5 2.59375C14.6562 2.625 14.8594 2.71094 15.1094 2.85156C15.375 2.99219 15.5859 3.10156 15.7422 3.17969C15.8984 3.25781 16.0547 3.33594 16.2109 3.41406C16.3672 3.49219 16.5156 3.57812 16.6562 3.67188C16.7969 3.75 16.9375 3.84375 17.0781 3.95312C17.2188 4.04688 17.3672 4.125 17.5234 4.1875C17.6641 4.35938 17.8438 4.46875 18.0625 4.51562C18.2812 4.5625 18.4766 4.64844 18.6484 4.77344C18.7891 4.85156 18.9219 4.9375 19.0469 5.03125C19.1719 5.10938 19.2969 5.1875 19.4219 5.26562C19.4688 5.34375 19.5234 5.40625 19.5859 5.45312C19.6641 5.5 19.7344 5.5625 19.7969 5.64062C20.1094 5.8125 20.2891 5.94531 20.3359 6.03906C20.3828 6.07031 20.4531 6.11719 20.5469 6.17969C20.6406 6.24219 20.7344 6.3125 20.8281 6.39062C20.9219 6.45312 21.0078 6.52344 21.0859 6.60156C21.1641 6.66406 21.2109 6.72656 21.2266 6.78906C21.1641 6.92969 21.1328 7.04688 21.1328 7.14062C21.1328 7.21875 21.1016 7.28906 21.0391 7.35156C21.1328 7.47656 21.1797 7.59375 21.1797 7.70312C21.1016 7.89062 20.9688 8.04688 20.7812 8.17188C20.7344 8.29688 20.6562 8.39844 20.5469 8.47656C20.4531 8.53906 20.3906 8.63281 20.3594 8.75781C20.2344 8.83594 20.1562 8.89844 20.125 8.94531C20.1094 8.99219 20.0859 9.03906 20.0547 9.08594C19.7578 9.39844 19.4766 9.67188 19.2109 9.90625C18.9609 10.125 18.7266 10.3672 18.5078 10.6328C18.3516 10.7109 18.2188 10.8125 18.1094 10.9375C18 11.0469 17.8984 11.1719 17.8047 11.3125C17.6797 11.4375 17.5547 11.5625 17.4297 11.6875C17.3203 11.7969 17.2031 11.9062 17.0781 12.0156C17.0469 12.0781 16.9922 12.1328 16.9141 12.1797C16.8516 12.2109 16.8047 12.2656 16.7734 12.3438C16.6016 12.4219 16.4609 12.5312 16.3516 12.6719C16.2422 12.8125 16.1094 12.9297 15.9531 13.0234L15.7891 13.2578C15.7422 13.2891 15.6719 13.3438 15.5781 13.4219C15.5 13.4844 15.4141 13.5625 15.3203 13.6562C15.2422 13.7344 15.1719 13.8125 15.1094 13.8906C15.0469 13.9688 15.0078 14.0312 14.9922 14.0781C14.9453 14.0938 14.8672 14.1406 14.7578 14.2188C14.6641 14.2969 14.5625 14.3828 14.4531 14.4766C14.3594 14.5703 14.2656 14.6641 14.1719 14.7578C14.0938 14.8516 14.0469 14.9141 14.0312 14.9453L13.7969 15.1094C13.8125 15.5312 13.8203 15.9609 13.8203 16.3984C13.8359 16.8203 13.8438 17.2422 13.8438 17.6641V18.4609L13.6797 18.6719C13.6016 18.6719 13.5391 18.6562 13.4922 18.625C13.4453 18.5938 13.3906 18.5781 13.3281 18.5781C13.2656 18.5781 13.2031 18.6094 13.1406 18.6719C13.0938 18.7344 13.0469 18.7812 13 18.8125C12.8906 18.8281 12.7969 18.8594 12.7188 18.9062C12.6562 18.9375 12.5859 18.9688 12.5078 19C12.4141 18.9531 12.3203 18.9297 12.2266 18.9297C12.0234 18.9766 11.9219 18.9844 11.9219 18.9531C11.9375 18.9219 11.9062 18.9062 11.8281 18.9062C11.7031 19.0312 11.625 19.0938 11.5938 19.0938C11.5312 19.0938 11.4688 19.1016 11.4062 19.1172C11.3594 19.1328 11.3047 19.1406 11.2422 19.1406C11.1797 19.0156 11.125 18.8906 11.0781 18.7656C11.0469 18.625 10.9766 18.4922 10.8672 18.3672C10.9141 18.2109 10.9062 18.1016 10.8438 18.0391C10.9375 17.8672 10.9766 17.6719 10.9609 17.4531C10.9453 17.2344 10.9375 17.0312 10.9375 16.8438C10.9375 16.7344 10.9375 16.6328 10.9375 16.5391C10.9531 16.4297 10.9609 16.3281 10.9609 16.2344C10.9609 16.0469 10.9453 15.8594 10.9141 15.6719C10.8828 15.4688 10.8672 15.2656 10.8672 15.0625C10.8672 14.5938 10.8828 14.125 10.9141 13.6562C10.9453 13.1719 10.9609 12.6953 10.9609 12.2266C10.9609 11.9609 10.9453 11.6875 10.9141 11.4062C10.8984 11.125 10.8906 10.8516 10.8906 10.5859C10.8906 10.4141 10.8984 10.2578 10.9141 10.1172C10.9297 9.96094 10.9453 9.8125 10.9609 9.67188C10.9609 8.95312 10.9688 8.26562 10.9844 7.60938C11.0156 6.9375 11.0312 6.27344 11.0312 5.61719C11.0312 5.39844 11.0234 5.19531 11.0078 5.00781C11.0078 4.80469 11.0078 4.59375 11.0078 4.375C11.0078 4.26562 11.0156 4.15625 11.0312 4.04688C11.0469 3.9375 11.0547 3.82812 11.0547 3.71875C11.1016 3.23438 11.125 2.75 11.125 2.26562L11.1016 1.89062C11.1641 1.79688 11.2578 1.75 11.3828 1.75C11.5547 1.75 11.6875 1.80469 11.7812 1.91406C11.8906 1.89844 11.9922 1.88281 12.0859 1.86719C12.1953 1.83594 12.2969 1.82031 12.3906 1.82031C12.5312 1.82031 12.6484 1.86719 12.7422 1.96094ZM14.125 5.6875C14.125 5.76562 14.1172 5.82812 14.1016 5.875C14.0859 5.90625 14.0703 5.9375 14.0547 5.96875C14.0547 6.01562 14.0547 6.07031 14.0547 6.13281C14.0703 6.17969 14.0781 6.23438 14.0781 6.29688C14.0781 6.65625 14.0703 7.01562 14.0547 7.375C14.0547 7.71875 14.0547 8.0625 14.0547 8.40625L14.0078 9.64844C14.0078 9.72656 14.0156 9.8125 14.0312 9.90625C14.0469 10 14.0547 10.0859 14.0547 10.1641C14.0547 10.2422 14.0469 10.3203 14.0312 10.3984C14.0156 10.4766 14.0078 10.5547 14.0078 10.6328C14.0078 10.8359 14.0312 11.0391 14.0781 11.2422C14.1562 11.2109 14.2109 11.1641 14.2422 11.1016C14.2734 11.0234 14.3125 10.9609 14.3594 10.9141C14.7188 10.5859 15.0547 10.2422 15.3672 9.88281C15.6797 9.52344 16 9.16406 16.3281 8.80469C16.6094 8.50781 16.8516 8.26562 17.0547 8.07812C17.2578 7.89062 17.4141 7.66406 17.5234 7.39844C17.2578 7.22656 16.9844 7.05469 16.7031 6.88281C16.4219 6.69531 16.125 6.53906 15.8125 6.41406C15.7969 6.38281 15.75 6.34375 15.6719 6.29688C15.6094 6.25 15.5391 6.21094 15.4609 6.17969C15.3828 6.13281 15.3047 6.09375 15.2266 6.0625C15.1484 6.03125 15.0938 6.01562 15.0625 6.01562C14.9219 5.89062 14.7734 5.8125 14.6172 5.78125C14.5078 5.78125 14.4141 5.76562 14.3359 5.73438C14.2578 5.6875 14.2031 5.64844 14.1719 5.61719L14.125 5.6875ZM32.9688 16.75C32.9531 16.9844 33 17.1641 33.1094 17.2891C33.2344 17.3984 33.3359 17.5391 33.4141 17.7109C33.3828 17.9297 33.4062 18.1016 33.4844 18.2266C33.4375 18.3203 33.3906 18.4297 33.3438 18.5547C33.2969 18.6641 33.2266 18.7578 33.1328 18.8359C32.8828 18.9453 32.7344 19.0391 32.6875 19.1172C32.6406 19.1953 32.5469 19.2344 32.4062 19.2344C32.3281 19.3125 32.2422 19.3906 32.1484 19.4688C32.0547 19.5625 31.9688 19.6484 31.8906 19.7266C31.8125 19.6953 31.7578 19.6562 31.7266 19.6094C31.6953 19.5625 31.6484 19.5 31.5859 19.4219C31.4297 19.375 31.2891 19.2891 31.1641 19.1641C31.0391 19.0547 30.9297 18.9297 30.8359 18.7891C30.7422 18.6328 30.6484 18.4766 30.5547 18.3203C30.4766 18.1484 30.4062 17.9922 30.3438 17.8516C30.125 17.4453 29.8984 17.0391 29.6641 16.6328C29.4453 16.2109 29.2188 15.7969 28.9844 15.3906C28.8594 15.1875 28.7344 14.9844 28.6094 14.7812C28.5 14.5625 28.3828 14.3438 28.2578 14.125C28.2266 14.0938 28.1953 14.0625 28.1641 14.0312C28.1328 13.9844 28.1016 13.9375 28.0703 13.8906C27.9609 13.7344 27.875 13.5625 27.8125 13.375C27.7656 13.1719 27.6562 13.0078 27.4844 12.8828C27.1875 12.8516 26.9141 12.8984 26.6641 13.0234C26.4297 13.1328 26.2188 13.2812 26.0312 13.4688C26.0469 13.5781 26.0547 13.6797 26.0547 13.7734C26.0547 13.8672 26.0547 13.9609 26.0547 14.0547C26.0547 14.4141 26.0391 14.7578 26.0078 15.0859C25.9766 15.4141 25.9609 15.7578 25.9609 16.1172C25.9609 16.2734 25.9688 16.4375 25.9844 16.6094C26 16.7656 26.0234 16.9219 26.0547 17.0781C26.0078 17.25 25.9844 17.4375 25.9844 17.6406C25.9844 17.75 25.9922 17.8516 26.0078 17.9453C26.0391 18.0391 26.0547 18.1406 26.0547 18.25C26.0547 18.4062 26 18.5156 25.8906 18.5781C25.7969 18.625 25.7656 18.7188 25.7969 18.8594C25.6094 18.9375 25.4297 19.0156 25.2578 19.0938C25.0859 19.1719 24.9062 19.2266 24.7188 19.2578C24.6406 19.2734 24.5625 19.2734 24.4844 19.2578C24.4062 19.2578 24.3359 19.2734 24.2734 19.3047C24.1953 19.3359 24.1328 19.3906 24.0859 19.4688C24.0391 19.5625 23.9766 19.6094 23.8984 19.6094C23.8047 19.6094 23.75 19.5703 23.7344 19.4922C23.7188 19.4297 23.6875 19.375 23.6406 19.3281C23.5625 19.2969 23.5 19.2812 23.4531 19.2812C23.4062 19.2812 23.3594 19.2578 23.3125 19.2109C23.3281 19.0703 23.2969 18.9688 23.2188 18.9062C23.1406 18.8281 23.1016 18.6797 23.1016 18.4609C23.1016 18.2891 23.1094 18.125 23.125 17.9688C23.1562 17.8125 23.1719 17.6484 23.1719 17.4766C23.1719 17.3359 23.1484 17.2109 23.1016 17.1016C23.0703 16.9766 23.0391 16.8438 23.0078 16.7031C22.9922 16.6406 22.9922 16.5781 23.0078 16.5156C23.0234 16.4531 23.0312 16.3906 23.0312 16.3281C23.0312 16.0469 23.0156 15.7656 22.9844 15.4844C22.9688 15.1875 22.9609 14.8984 22.9609 14.6172C22.9609 14.5078 22.9609 14.4062 22.9609 14.3125C22.9609 14.2188 22.9688 14.125 22.9844 14.0312C23.0156 13.9375 23.0391 13.8594 23.0547 13.7969C23.0859 13.7344 23.1016 13.6562 23.1016 13.5625C23.1016 13.2656 23.0703 12.9766 23.0078 12.6953C22.9453 12.3984 22.9141 12.1094 22.9141 11.8281C22.9141 11.6719 22.9141 11.5156 22.9141 11.3594C22.9297 11.1875 22.9375 11.0234 22.9375 10.8672C22.9375 10.4141 22.9297 9.96875 22.9141 9.53125C22.8984 9.09375 22.8906 8.65625 22.8906 8.21875C22.8906 7.90625 22.8984 7.60156 22.9141 7.30469C22.9297 6.99219 22.9375 6.67969 22.9375 6.36719C22.9375 5.97656 22.9219 5.59375 22.8906 5.21875C22.8594 4.82812 22.8438 4.42969 22.8438 4.02344C22.8438 3.88281 22.8359 3.78906 22.8203 3.74219C22.8047 3.69531 22.7812 3.67188 22.75 3.67188C22.7188 3.65625 22.6797 3.64844 22.6328 3.64844C22.6016 3.63281 22.5703 3.60156 22.5391 3.55469C22.5391 3.46094 22.5781 3.39844 22.6562 3.36719C22.7344 3.32031 22.7734 3.1875 22.7734 2.96875C22.7734 2.84375 22.7578 2.71875 22.7266 2.59375C22.7109 2.46875 22.7031 2.34375 22.7031 2.21875C22.7031 2.03125 22.7422 1.84375 22.8203 1.65625C22.8984 1.46875 22.9688 1.28906 23.0312 1.11719C23.2188 1.10156 23.3438 1.10156 23.4062 1.11719C23.4844 1.13281 23.5625 1.125 23.6406 1.09375C23.6875 1.26563 23.7891 1.35938 23.9453 1.375C24.1016 1.375 24.2422 1.39062 24.3672 1.42188C24.5078 1.4375 24.6406 1.47656 24.7656 1.53906C24.9062 1.58594 25.0391 1.60938 25.1641 1.60938C25.1953 1.70312 25.2578 1.77344 25.3516 1.82031C25.4609 1.85156 25.5703 1.88281 25.6797 1.91406C25.8047 1.89844 25.8984 1.84375 25.9609 1.75C26.0391 1.65625 26.1406 1.60938 26.2656 1.60938C26.3594 1.60938 26.4688 1.67969 26.5938 1.82031C26.7188 1.94531 26.8125 2.04687 26.875 2.125C26.9375 2.17188 27.0547 2.27344 27.2266 2.42969C27.3984 2.58594 27.5859 2.75 27.7891 2.92188C27.9922 3.07812 28.1797 3.23438 28.3516 3.39062C28.5234 3.53125 28.6328 3.60938 28.6797 3.625C29.3203 4.26562 29.9141 4.85156 30.4609 5.38281C31.0234 5.89844 31.6328 6.36719 32.2891 6.78906C32.3047 6.83594 32.3203 6.875 32.3359 6.90625C32.3672 6.9375 32.3984 6.97656 32.4297 7.02344C32.4297 7.14844 32.4062 7.24219 32.3594 7.30469C32.3125 7.36719 32.2891 7.44531 32.2891 7.53906C32.2891 7.58594 32.2969 7.63281 32.3125 7.67969C32.3438 7.72656 32.3594 7.77344 32.3594 7.82031C32.375 7.88281 32.375 7.94531 32.3594 8.00781C32.3594 8.05469 32.3594 8.10938 32.3594 8.17188C32.3594 8.32812 32.4062 8.46875 32.5 8.59375C32.6094 8.71875 32.6641 8.85938 32.6641 9.01562C32.6328 9.15625 32.5703 9.24219 32.4766 9.27344C32.3828 9.30469 32.3047 9.34375 32.2422 9.39062C32.2109 9.42188 32.1797 9.46094 32.1484 9.50781C32.1328 9.55469 32.1094 9.59375 32.0781 9.625C31.7344 9.78125 31.4844 9.92969 31.3281 10.0703C31.1719 10.1953 31.0078 10.3203 30.8359 10.4453C30.7891 10.4766 30.7109 10.5312 30.6016 10.6094C30.4922 10.6719 30.3828 10.7422 30.2734 10.8203C30.1641 10.8828 30.0625 10.9531 29.9688 11.0312C29.8906 11.1094 29.8516 11.1719 29.8516 11.2188C29.8516 11.3281 29.9141 11.4844 30.0391 11.6875C30.1797 11.875 30.2812 12.0234 30.3438 12.1328C30.5156 12.4141 30.6719 12.6953 30.8125 12.9766C30.9531 13.2422 31.1094 13.5078 31.2812 13.7734C31.5938 14.2578 31.8828 14.75 32.1484 15.25C32.4297 15.75 32.7031 16.25 32.9688 16.75ZM29.1484 8.03125C28.7891 7.57812 28.3984 7.17188 27.9766 6.8125C27.5703 6.4375 27.1797 6.04688 26.8047 5.64062L26.5469 5.59375C26.4531 5.4375 26.3438 5.30469 26.2188 5.19531C26.1094 5.07031 25.9922 4.94531 25.8672 4.82031C25.8828 4.99219 25.8906 5.15625 25.8906 5.3125C25.8906 5.46875 25.8906 5.63281 25.8906 5.80469C25.8906 6.30469 25.875 6.79688 25.8438 7.28125C25.8281 7.75 25.8203 8.22656 25.8203 8.71094C25.8203 9.19531 25.8438 9.65625 25.8906 10.0938C26.2188 10.0938 26.5156 10 26.7812 9.8125C26.8906 9.73438 26.9922 9.65625 27.0859 9.57812C27.1797 9.48438 27.2812 9.39844 27.3906 9.32031C27.5156 9.24219 27.6562 9.14844 27.8125 9.03906C27.9844 8.92969 28.1484 8.82031 28.3047 8.71094C28.4766 8.60156 28.6328 8.49219 28.7734 8.38281C28.9297 8.25781 29.0547 8.14062 29.1484 8.03125ZM46.0703 9.69531C46.0391 9.75781 46.0078 9.82031 45.9766 9.88281C45.9453 9.92969 45.9219 9.98438 45.9062 10.0469C45.9688 10.1094 46.0234 10.1797 46.0703 10.2578C46.1328 10.3203 46.1641 10.3906 46.1641 10.4688C46.1641 10.5312 46.1484 10.5938 46.1172 10.6562C46.1016 10.7031 46.1016 10.75 46.1172 10.7969C46.0547 10.9062 45.9844 11.0078 45.9062 11.1016C45.8438 11.1953 45.7969 11.2969 45.7656 11.4062C45.7031 11.4688 45.6484 11.5312 45.6016 11.5938C45.5703 11.6562 45.5391 11.7188 45.5078 11.7812C45.4297 11.8125 45.375 11.8672 45.3438 11.9453C45.3281 12.0078 45.2891 12.0625 45.2266 12.1094C45.2109 12.1719 45.1328 12.3203 44.9922 12.5547C44.8516 12.7891 44.6953 13.0391 44.5234 13.3047C44.3516 13.5703 44.1875 13.8281 44.0312 14.0781C43.875 14.3281 43.7656 14.4922 43.7031 14.5703C43.6719 14.6484 43.6328 14.7109 43.5859 14.7578C43.5547 14.8047 43.5156 14.8594 43.4688 14.9219C43.4375 14.9688 43.4141 15.0234 43.3984 15.0859C43.3828 15.1328 43.3594 15.1719 43.3281 15.2031C43.2969 15.2656 43.2578 15.3203 43.2109 15.3672C43.1797 15.4141 43.1484 15.4766 43.1172 15.5547C42.9609 15.7578 42.8047 16 42.6484 16.2812C42.4922 16.5625 42.3438 16.8125 42.2031 17.0312C42.125 17.1562 42.0469 17.2812 41.9688 17.4062C41.9062 17.5312 41.8359 17.6562 41.7578 17.7812C41.6797 17.9062 41.6016 18.0234 41.5234 18.1328C41.4453 18.2422 41.3672 18.3594 41.2891 18.4844C41.1641 18.5781 41.0547 18.6953 40.9609 18.8359C40.8672 18.9609 40.7578 19.0703 40.6328 19.1641C40.4297 19.1641 40.3047 19.0703 40.2578 18.8828C40.0547 18.8359 39.9531 18.8359 39.9531 18.8828C39.9531 18.9297 39.9531 18.9688 39.9531 19C39.8906 19.0312 39.8438 19.0781 39.8125 19.1406C39.7969 19.2031 39.7578 19.25 39.6953 19.2812C39.5703 19.25 39.4609 19.1953 39.3672 19.1172C39.2891 19.0547 39.1719 19.0312 39.0156 19.0469C38.9531 18.9531 38.8828 18.875 38.8047 18.8125C38.7266 18.7344 38.6562 18.6562 38.5938 18.5781C38.5625 18.4844 38.5156 18.4062 38.4531 18.3438C38.4062 18.2812 38.3594 18.2188 38.3125 18.1562C38.2656 18.0781 38.2188 18.0078 38.1719 17.9453C38.125 17.8828 38.0781 17.8203 38.0312 17.7578C37.9219 17.6172 37.8125 17.4844 37.7031 17.3594C37.6094 17.2188 37.5234 17.0781 37.4453 16.9375C37.3203 16.75 37.1953 16.5625 37.0703 16.375C36.9609 16.1719 36.8438 15.9766 36.7188 15.7891C36.6562 15.6953 36.5938 15.6016 36.5312 15.5078C36.4688 15.4141 36.4141 15.3203 36.3672 15.2266C36.3359 15.1484 36.2891 15.0547 36.2266 14.9453C36.1797 14.8359 36.1172 14.7656 36.0391 14.7344C36.0078 14.6094 35.9531 14.5156 35.875 14.4531C35.7969 14.3906 35.7188 14.3125 35.6406 14.2188C35.5312 14.0938 35.4297 13.9609 35.3359 13.8203C35.2422 13.6641 35.1484 13.5078 35.0547 13.3516C34.7422 12.9141 34.4453 12.4844 34.1641 12.0625C33.8984 11.6406 33.6328 11.2031 33.3672 10.75C33.4453 10.5 33.4844 10.3125 33.4844 10.1875C33.4844 10.0625 33.5234 9.96094 33.6016 9.88281C33.6016 9.82031 33.6172 9.72656 33.6484 9.60156C33.8516 9.25781 34.0469 8.94531 34.2344 8.66406C34.4062 8.39844 34.5234 8.17969 34.5859 8.00781C34.6641 7.83594 34.7422 7.65625 34.8203 7.46875C34.8984 7.42188 34.9609 7.36719 35.0078 7.30469C35.0547 7.22656 35.1172 7.15625 35.1953 7.09375C35.2266 6.92188 35.2969 6.78125 35.4062 6.67188C35.5156 6.54688 35.5859 6.39844 35.6172 6.22656C35.7578 6.11719 35.8359 5.99219 35.8516 5.85156C36.0547 5.71094 36.1797 5.52344 36.2266 5.28906C36.3516 5.16406 36.4531 5.02344 36.5312 4.86719C36.625 4.71094 36.7109 4.54688 36.7891 4.375C36.9766 4.21875 37.125 4.01562 37.2344 3.76562C37.3281 3.70312 37.3984 3.61719 37.4453 3.50781C37.4922 3.39844 37.5547 3.30469 37.6328 3.22656C37.7578 3.02344 37.8516 2.85938 37.9141 2.73438C37.9922 2.59375 38.0703 2.45312 38.1484 2.3125C38.2578 2.3125 38.3281 2.27344 38.3594 2.19531C38.3906 2.11719 38.4531 2.08594 38.5469 2.10156C38.5469 1.96094 38.5859 1.83594 38.6641 1.72656C38.6953 1.71094 38.7422 1.69531 38.8047 1.67969C38.8672 1.64844 38.8984 1.61719 38.8984 1.58594C38.8672 1.39844 38.875 1.28906 38.9219 1.25781C38.9688 1.22656 39.0078 1.19531 39.0391 1.16406C39.2109 1.19531 39.3281 1.21875 39.3906 1.23438C39.4531 1.25 39.5547 1.30469 39.6953 1.39844C39.8516 1.39844 39.9609 1.42969 40.0234 1.49219C40.0859 1.55469 40.1562 1.60156 40.2344 1.63281C40.2969 1.69531 40.3438 1.75781 40.375 1.82031C40.4219 1.88281 40.4844 1.92969 40.5625 1.96094C40.6875 2.13281 40.8203 2.32031 40.9609 2.52344C41.1016 2.72656 41.2344 2.91406 41.3594 3.08594C41.5312 3.32031 41.7031 3.54688 41.875 3.76562C42.0625 3.96875 42.2344 4.19531 42.3906 4.44531C42.4375 4.52344 42.5234 4.66406 42.6484 4.86719C42.7734 5.05469 42.9141 5.25781 43.0703 5.47656C43.2266 5.69531 43.3672 5.89844 43.4922 6.08594C43.6172 6.25781 43.7031 6.35938 43.75 6.39062C43.7969 6.46875 43.8984 6.61719 44.0547 6.83594C44.2109 7.05469 44.375 7.28906 44.5469 7.53906C44.7344 7.77344 44.9141 8 45.0859 8.21875C45.2578 8.4375 45.375 8.57812 45.4375 8.64062C45.6094 8.875 45.7344 9.07031 45.8125 9.22656C45.9062 9.36719 45.9922 9.52344 46.0703 9.69531ZM40.7031 14.1016C40.875 13.8672 41.0078 13.6562 41.1016 13.4688C41.1953 13.2812 41.2891 13.0938 41.3828 12.9062C41.5391 12.7188 41.6328 12.5859 41.6641 12.5078C41.6953 12.4297 41.7344 12.3516 41.7812 12.2734C41.9062 12.0859 42.0312 11.8984 42.1562 11.7109C42.2969 11.5234 42.4062 11.3203 42.4844 11.1016C42.5781 11.0391 42.6484 10.9609 42.6953 10.8672C42.7422 10.7734 42.8125 10.6875 42.9062 10.6094C42.8125 10.2812 42.7031 10.0312 42.5781 9.85938C42.4531 9.67188 42.3281 9.49219 42.2031 9.32031C42.1562 9.24219 42.1094 9.16406 42.0625 9.08594C42.0156 9.00781 41.9688 8.92969 41.9219 8.85156C41.8594 8.80469 41.8047 8.75781 41.7578 8.71094C41.7266 8.66406 41.6875 8.61719 41.6406 8.57031C41.6094 8.49219 41.5625 8.39062 41.5 8.26562C41.4375 8.1875 41.375 8.11719 41.3125 8.05469C41.25 7.99219 41.1953 7.91406 41.1484 7.82031C41.0859 7.75781 41.0078 7.67188 40.9141 7.5625C40.8203 7.45312 40.7188 7.33594 40.6094 7.21094C40.5156 7.07031 40.4297 6.94531 40.3516 6.83594C40.2734 6.71094 40.2109 6.60938 40.1641 6.53125C40.1328 6.45312 40.1016 6.39062 40.0703 6.34375C40.0547 6.28125 40.0312 6.21875 40 6.15625C39.9219 6.04688 39.8438 5.95312 39.7656 5.875C39.6875 5.78125 39.6094 5.67969 39.5312 5.57031C39.4844 5.60156 39.4375 5.625 39.3906 5.64062C39.3594 5.64062 39.3281 5.65625 39.2969 5.6875C39.1875 5.89062 39.0625 6.07812 38.9219 6.25C38.7969 6.42188 38.6719 6.60938 38.5469 6.8125C38.4375 7 38.3281 7.19531 38.2188 7.39844C38.1094 7.58594 38 7.77344 37.8906 7.96094C37.8125 8.07031 37.7344 8.17969 37.6562 8.28906C37.5938 8.38281 37.5234 8.49219 37.4453 8.61719C37.3672 8.72656 37.2969 8.84375 37.2344 8.96875C37.1875 9.07812 37.125 9.1875 37.0469 9.29688C36.9219 9.45312 36.8203 9.59375 36.7422 9.71875C36.6641 9.84375 36.5859 9.99219 36.5078 10.1641C36.5547 10.2578 36.625 10.3906 36.7188 10.5625C36.8281 10.7188 36.9375 10.8828 37.0469 11.0547C37.1562 11.2109 37.25 11.3594 37.3281 11.5C37.4219 11.6406 37.4766 11.7344 37.4922 11.7812C37.6172 11.8906 37.7188 12.0156 37.7969 12.1562C37.875 12.2812 37.9766 12.4062 38.1016 12.5312C38.1641 12.6562 38.2344 12.7656 38.3125 12.8594C38.3906 12.9531 38.4688 13.0547 38.5469 13.1641C38.625 13.2734 38.7266 13.4375 38.8516 13.6562C38.9766 13.8594 39.1016 14.0703 39.2266 14.2891C39.3516 14.5078 39.4766 14.7109 39.6016 14.8984C39.7266 15.0859 39.8281 15.2031 39.9062 15.25C40.0625 15.0781 40.1875 14.8906 40.2812 14.6875C40.3906 14.4688 40.5312 14.2734 40.7031 14.1016ZM51.9297 7.5625C52.0234 7.34375 52.0938 7.21094 52.1406 7.16406C52.2031 7.10156 52.2344 7.00781 52.2344 6.88281C52.3906 6.57031 52.5234 6.25 52.6328 5.92188C52.7578 5.57812 52.8984 5.24219 53.0547 4.91406C53.1953 4.57031 53.3125 4.23438 53.4062 3.90625C53.5156 3.5625 53.6406 3.21875 53.7812 2.875C53.7969 2.8125 53.8281 2.71875 53.875 2.59375C53.9219 2.46875 53.9688 2.33594 54.0156 2.19531C54.0625 2.05469 54.1094 1.92969 54.1562 1.82031C54.2031 1.69531 54.2422 1.60938 54.2734 1.5625C54.3047 1.51562 54.3281 1.47656 54.3438 1.44531C54.375 1.39844 54.3984 1.35156 54.4141 1.30469C54.5078 1.30469 54.5703 1.3125 54.6016 1.32812C54.6328 1.32812 54.6719 1.32812 54.7188 1.32812C54.8281 1.32812 54.8906 1.34375 54.9062 1.375C54.9375 1.39062 54.9766 1.41406 55.0234 1.44531C55.1953 1.46094 55.3281 1.48437 55.4219 1.51562C55.5312 1.54688 55.625 1.60156 55.7031 1.67969C55.9219 1.82031 56.0938 1.90625 56.2188 1.9375C56.3594 1.96875 56.4688 2.03906 56.5469 2.14844C56.875 2.17969 57.0391 2.35156 57.0391 2.66406C56.9609 2.88281 56.8672 3.10156 56.7578 3.32031C56.6641 3.52344 56.5781 3.72656 56.5 3.92969C56.3594 4.38281 56.2031 4.82031 56.0312 5.24219C55.8594 5.64844 55.6719 6.05469 55.4688 6.46094C55.3281 6.77344 55.1875 7.09375 55.0469 7.42188C54.9219 7.75 54.7812 8.07031 54.625 8.38281C54.5469 8.64844 54.4688 8.86719 54.3906 9.03906C54.2969 9.24219 54.1953 9.44531 54.0859 9.64844C53.9766 9.85156 53.8828 10.0625 53.8047 10.2812C53.7266 10.3594 53.6641 10.4531 53.6172 10.5625C53.5703 10.6562 53.5156 10.75 53.4531 10.8438C53.4844 10.9844 53.5391 11.1172 53.6172 11.2422C53.7109 11.3516 53.7969 11.4766 53.875 11.6172C53.8906 11.7266 53.9219 11.8359 53.9688 11.9453C54.0156 12.0391 54.0625 12.1406 54.1094 12.25C54.2969 12.5938 54.4766 12.9844 54.6484 13.4219C54.8359 13.8438 55.0234 14.2109 55.2109 14.5234C55.4141 14.8359 55.5625 15.1172 55.6562 15.3672C55.7656 15.6172 55.8984 15.8984 56.0547 16.2109C56.0859 16.2891 56.125 16.3594 56.1719 16.4219C56.2188 16.4688 56.2656 16.5312 56.3125 16.6094L56.5234 17.0312C56.5859 17.1719 56.6562 17.3125 56.7344 17.4531C56.8281 17.5781 56.9141 17.7109 56.9922 17.8516C56.9922 17.9297 57 18 57.0156 18.0625C57.0312 18.1094 57.0391 18.1719 57.0391 18.25C56.9297 18.4375 56.8516 18.5312 56.8047 18.5312C56.7734 18.5312 56.7344 18.5469 56.6875 18.5781C56.4062 18.6875 56.2266 18.8906 56.1484 19.1875C56.0703 19.2188 55.9922 19.2422 55.9141 19.2578C55.8359 19.2734 55.7969 19.3359 55.7969 19.4453C55.625 19.5547 55.4766 19.5625 55.3516 19.4688C55.2734 19.5469 55.2031 19.6328 55.1406 19.7266C55.0781 19.8359 54.9922 19.9141 54.8828 19.9609C54.7578 19.8828 54.6641 19.7891 54.6016 19.6797C54.5547 19.5703 54.4844 19.4688 54.3906 19.375C54.375 19.2656 54.3438 19.1719 54.2969 19.0938C54.25 19.0156 54.2188 18.9297 54.2031 18.8359C54.1719 18.7891 54.125 18.7031 54.0625 18.5781C54.0156 18.4531 53.9609 18.3281 53.8984 18.2031C53.8359 18.0781 53.7734 17.9688 53.7109 17.875C53.6484 17.7656 53.6016 17.6953 53.5703 17.6641C53.4453 17.4141 53.3359 17.1641 53.2422 16.9141C53.1641 16.6641 53.0625 16.4062 52.9375 16.1406C52.75 15.7188 52.5547 15.3047 52.3516 14.8984C52.1641 14.4766 51.9844 14.0625 51.8125 13.6562C51.7344 13.6719 51.6484 13.7578 51.5547 13.9141C51.4609 14.0547 51.375 14.2188 51.2969 14.4062C51.2188 14.5938 51.1484 14.7812 51.0859 14.9688C51.0234 15.1406 50.9844 15.2734 50.9688 15.3672C50.8906 15.4766 50.8359 15.5859 50.8047 15.6953C50.7734 15.7891 50.7188 15.875 50.6406 15.9531C50.5625 16.2188 50.4688 16.4766 50.3594 16.7266C50.25 16.9609 50.1328 17.2031 50.0078 17.4531C50.0078 17.5 50 17.5469 49.9844 17.5938C49.9688 17.625 49.9609 17.6641 49.9609 17.7109C49.7891 17.9922 49.6172 18.2812 49.4453 18.5781C49.2734 18.8594 49.1172 19.1562 48.9766 19.4688C48.9297 19.5156 48.875 19.5625 48.8125 19.6094C48.75 19.6562 48.6797 19.6797 48.6016 19.6797C48.4922 19.6797 48.3906 19.6328 48.2969 19.5391C48.2031 19.4609 48.1172 19.3984 48.0391 19.3516C47.7578 19.2422 47.5703 19.125 47.4766 19C47.3984 18.8906 47.25 18.8438 47.0312 18.8594C46.9531 18.75 46.8984 18.7031 46.8672 18.7188C46.8359 18.7344 46.7969 18.7422 46.75 18.7422C46.625 18.6953 46.5469 18.6406 46.5156 18.5781C46.4844 18.5 46.4531 18.4375 46.4219 18.3906C46.4219 18.2344 46.4141 18.1328 46.3984 18.0859C46.4141 18.0234 46.4297 17.9688 46.4453 17.9219C46.4766 17.875 46.5 17.8203 46.5156 17.7578C46.6875 17.5391 46.8125 17.3125 46.8906 17.0781C46.9844 16.8438 47.1172 16.625 47.2891 16.4219C47.3359 16.2812 47.3984 16.1484 47.4766 16.0234C47.5547 15.8984 47.6094 15.7578 47.6406 15.6016C47.75 15.4609 47.8438 15.3203 47.9219 15.1797C48 15.0391 48.0625 14.8828 48.1094 14.7109C48.1406 14.6797 48.1641 14.6406 48.1797 14.5938C48.1953 14.5469 48.2188 14.5078 48.25 14.4766C48.2969 14.3359 48.3516 14.2031 48.4141 14.0781C48.4766 13.9375 48.5234 13.7969 48.5547 13.6562C48.5859 13.6406 48.6484 13.5469 48.7422 13.375C48.8359 13.1875 48.9297 12.9922 49.0234 12.7891C49.1328 12.5703 49.2266 12.3672 49.3047 12.1797C49.3984 11.9766 49.4609 11.8438 49.4922 11.7812C49.6016 11.5625 49.7109 11.375 49.8203 11.2188C49.9297 11.0625 50.0234 10.8594 50.1016 10.6094C50.0547 10.5156 50.0156 10.4219 49.9844 10.3281C49.9688 10.2344 49.9219 10.1484 49.8438 10.0703C49.8438 9.89844 49.7891 9.73438 49.6797 9.57812C49.5703 9.40625 49.5 9.23438 49.4688 9.0625C49.3438 8.85938 49.2422 8.64062 49.1641 8.40625C49.1016 8.15625 49.0312 7.92188 48.9531 7.70312C48.9375 7.64062 48.9141 7.57812 48.8828 7.51562C48.8516 7.45312 48.8203 7.39062 48.7891 7.32812C48.6484 7.0625 48.5156 6.8125 48.3906 6.57812C48.2656 6.32812 48.1328 6.07812 47.9922 5.82812C47.9141 5.67188 47.8125 5.49219 47.6875 5.28906C47.5625 5.07031 47.4609 4.88281 47.3828 4.72656C47.2578 4.42969 47.1406 4.14062 47.0312 3.85938C46.9219 3.5625 46.8047 3.26562 46.6797 2.96875C46.6797 2.84375 46.6562 2.71094 46.6094 2.57031C46.5625 2.42969 46.5391 2.29688 46.5391 2.17188C46.6328 2.07812 46.7031 2.01563 46.75 1.98438C46.8125 1.95312 46.8594 1.91406 46.8906 1.86719C47.0156 1.86719 47.1328 1.8125 47.2422 1.70312C47.3984 1.6875 47.5547 1.66406 47.7109 1.63281C47.8672 1.58594 48.0156 1.51562 48.1562 1.42188C48.3125 1.42188 48.4375 1.39844 48.5312 1.35156C48.625 1.28906 48.7344 1.25781 48.8594 1.25781C48.9844 1.28906 49.0625 1.32031 49.0938 1.35156C49.125 1.38281 49.1641 1.41406 49.2109 1.44531C49.6641 2.46094 50.1172 3.47656 50.5703 4.49219C51.0234 5.50781 51.4766 6.53125 51.9297 7.5625ZM68.5938 2.40625C68.4219 2.71875 68.2266 3.08594 68.0078 3.50781C67.7891 3.92969 67.6172 4.29688 67.4922 4.60938C67.4453 4.71875 67.3984 4.82812 67.3516 4.9375C67.3203 5.03125 67.2812 5.13281 67.2344 5.24219C67.1562 5.47656 67.0547 5.70312 66.9297 5.92188C66.8203 6.125 66.7188 6.34375 66.625 6.57812C66.4844 6.89062 66.3359 7.21094 66.1797 7.53906C66.0391 7.85156 65.8984 8.17969 65.7578 8.52344C65.6016 8.83594 65.4766 9.10938 65.3828 9.34375C65.3047 9.5625 65.2188 9.78906 65.125 10.0234C65.0312 10.2578 64.9453 10.4922 64.8672 10.7266C64.8047 10.9453 64.75 11.1484 64.7031 11.3359C64.5625 11.5859 64.4453 11.7734 64.3516 11.8984C64.3203 12.1797 64.2891 12.4609 64.2578 12.7422C64.2266 13.0234 64.2109 13.3125 64.2109 13.6094C64.2109 13.75 64.2188 13.8906 64.2344 14.0312C64.2656 14.1562 64.2891 14.2891 64.3047 14.4297C64.3203 14.6328 64.3203 14.8359 64.3047 15.0391C64.3047 15.2266 64.3125 15.4219 64.3281 15.625C64.3438 16.0156 64.3594 16.4062 64.375 16.7969C64.4062 17.1719 64.4297 17.5625 64.4453 17.9688C64.4609 18.25 64.4453 18.4922 64.3984 18.6953C64.3672 18.8828 64.3594 19.0781 64.375 19.2812C64.3281 19.3125 64.2734 19.3359 64.2109 19.3516C64.1641 19.3672 64.1172 19.3906 64.0703 19.4219C63.8984 19.4219 63.7812 19.4141 63.7188 19.3984C63.6719 19.3984 63.625 19.4141 63.5781 19.4453C63.4375 19.3516 63.3594 19.3047 63.3438 19.3047C63.3281 19.3203 63.3125 19.3281 63.2969 19.3281C63.1094 19.2656 63.0078 19.2188 62.9922 19.1875C62.9766 19.1562 62.9453 19.125 62.8984 19.0938C62.7266 19.0938 62.5859 19.1172 62.4766 19.1641C62.4297 19.1328 62.3906 19.1016 62.3594 19.0703C62.3281 19.0391 62.2891 19.0078 62.2422 18.9766C62.1016 18.9609 61.9844 18.9453 61.8906 18.9297C61.7969 18.8984 61.7188 18.8672 61.6562 18.8359C61.6094 18.7109 61.5547 18.6016 61.4922 18.5078C61.4453 18.4141 61.4219 18.2891 61.4219 18.1328C61.4219 18.0078 61.4375 17.8906 61.4688 17.7812C61.5 17.6719 61.5234 17.5547 61.5391 17.4297C61.5391 17.3516 61.5312 17.2812 61.5156 17.2188C61.5156 17.1562 61.5156 17.0859 61.5156 17.0078C61.5156 16.9297 61.5312 16.8281 61.5625 16.7031C61.5156 16.3438 61.4922 15.9688 61.4922 15.5781C61.5078 15.1719 61.5156 14.7891 61.5156 14.4297C61.5156 14.0703 61.4844 13.7344 61.4219 13.4219C61.4375 13.2188 61.4375 13.0781 61.4219 13C61.4062 12.9062 61.3984 12.8125 61.3984 12.7188C61.3984 12.6406 61.4062 12.5625 61.4219 12.4844C61.4375 12.3906 61.4453 12.3047 61.4453 12.2266C61.4453 12.2109 61.4297 12.1328 61.3984 11.9922C61.3828 11.8359 61.3594 11.6797 61.3281 11.5234C61.2969 11.3516 61.2656 11.1953 61.2344 11.0547C61.2031 10.8984 61.1875 10.8047 61.1875 10.7734C61.0312 10.4922 60.9141 10.2266 60.8359 9.97656C60.7578 9.72656 60.6719 9.51562 60.5781 9.34375C60.5156 9.21875 60.4531 9.09375 60.3906 8.96875C60.3281 8.84375 60.2734 8.71094 60.2266 8.57031C60.1953 8.49219 60.1641 8.40625 60.1328 8.3125C60.1172 8.21875 60.0938 8.13281 60.0625 8.05469C60 7.92969 59.9375 7.79688 59.875 7.65625C59.8281 7.5 59.7656 7.375 59.6875 7.28125C59.625 7.14062 59.5625 7.01562 59.5 6.90625C59.4531 6.78125 59.4297 6.66406 59.4297 6.55469C59.3828 6.36719 59.3047 6.20312 59.1953 6.0625C59.1016 5.90625 59.0156 5.75 58.9375 5.59375C58.8906 5.5 58.8516 5.41406 58.8203 5.33594C58.8047 5.25781 58.7812 5.17969 58.75 5.10156C58.7188 5.03906 58.6719 4.96094 58.6094 4.86719C58.5625 4.77344 58.5078 4.70312 58.4453 4.65625C58.4141 4.51562 58.3594 4.39062 58.2812 4.28125C58.2031 4.17188 58.1484 4.04688 58.1172 3.90625C58.0391 3.79688 57.9531 3.6875 57.8594 3.57812C57.7969 3.34375 57.7109 3.13281 57.6016 2.94531C57.4922 2.74219 57.3906 2.53125 57.2969 2.3125C57.3594 1.98438 57.5391 1.78125 57.8359 1.70312C57.9922 1.51562 58.0859 1.41406 58.1172 1.39844C58.1484 1.38281 58.2188 1.375 58.3281 1.375C58.4219 1.29687 58.5156 1.23438 58.6094 1.1875C58.7031 1.125 58.8125 1.10937 58.9375 1.14062C58.9531 1.07813 58.9922 1.02344 59.0547 0.976562C59.1328 0.929688 59.2031 0.90625 59.2656 0.90625C59.3594 0.90625 59.4375 0.953125 59.5 1.04688C59.5781 1.14062 59.6562 1.21094 59.7344 1.25781C59.8594 1.47656 59.9844 1.6875 60.1094 1.89062C60.25 2.09375 60.3672 2.30469 60.4609 2.52344C60.5703 2.74219 60.6641 2.96094 60.7422 3.17969C60.8359 3.39844 60.9688 3.60938 61.1406 3.8125C61.2188 4.125 61.3359 4.42188 61.4922 4.70312C61.6641 4.96875 61.8047 5.25781 61.9141 5.57031C61.9922 5.75781 62.0781 5.94531 62.1719 6.13281C62.2812 6.30469 62.375 6.49219 62.4531 6.69531C62.5 6.78906 62.5391 6.88281 62.5703 6.97656C62.6016 7.07031 62.6328 7.16406 62.6641 7.25781C62.6953 7.33594 62.7266 7.4375 62.7578 7.5625C62.7891 7.6875 62.8281 7.78906 62.875 7.86719C62.9844 7.75781 63.0781 7.61719 63.1562 7.44531C63.2656 7.22656 63.375 7.02344 63.4844 6.83594C63.6094 6.63281 63.7188 6.42188 63.8125 6.20312C63.9375 6 64.0234 5.78906 64.0703 5.57031C64.1328 5.35156 64.2031 5.13281 64.2812 4.91406C64.3125 4.83594 64.3438 4.75781 64.375 4.67969C64.4219 4.60156 64.4609 4.51562 64.4922 4.42188C64.5391 4.32812 64.5781 4.23438 64.6094 4.14062C64.6406 4.04688 64.6719 3.95312 64.7031 3.85938C64.8125 3.5625 64.9297 3.27344 65.0547 2.99219C65.1953 2.69531 65.3359 2.39844 65.4766 2.10156C65.4922 2.05469 65.5234 1.98438 65.5703 1.89062C65.6328 1.79688 65.6953 1.70312 65.7578 1.60938C65.8359 1.5 65.9062 1.40625 65.9688 1.32812C66.0312 1.25 66.0859 1.19531 66.1328 1.16406C66.1641 1.13281 66.2109 1.11719 66.2734 1.11719C66.3516 1.10156 66.4141 1.08594 66.4609 1.07031C66.6016 1.07031 66.7031 1.10937 66.7656 1.1875C66.9531 1.26563 67.0938 1.32031 67.1875 1.35156C67.2812 1.38281 67.3516 1.45313 67.3984 1.5625C67.6328 1.71875 67.8047 1.8125 67.9141 1.84375C68.0391 1.85937 68.1328 1.92188 68.1953 2.03125C68.3672 2.14062 68.4688 2.21875 68.5 2.26562C68.5312 2.3125 68.5625 2.35938 68.5938 2.40625Z" fill="#55A6FF"/>
</svg>
