<svg width="73" height="19" viewBox="0 0 73 19" fill="none" xmlns="http://www.w3.org/2000/svg">
<path d="M21.732 13.14C20.9387 13.14 20.2573 13.0047 19.688 12.734C19.1187 12.454 18.68 12.0293 18.372 11.46C18.064 10.8813 17.8913 10.158 17.854 9.29C17.8447 8.87933 17.84 8.48733 17.84 8.114C17.84 7.73133 17.8447 7.33467 17.854 6.924C17.8913 6.06533 18.0687 5.35133 18.386 4.782C18.7127 4.20333 19.1607 3.774 19.73 3.494C20.3087 3.20467 20.976 3.06 21.732 3.06C22.4973 3.06 23.1647 3.20467 23.734 3.494C24.3127 3.774 24.7653 4.20333 25.092 4.782C25.4187 5.35133 25.596 6.06533 25.624 6.924C25.6427 7.33467 25.652 7.73133 25.652 8.114C25.652 8.48733 25.6427 8.87933 25.624 9.29C25.596 10.158 25.4233 10.8813 25.106 11.46C24.798 12.0293 24.3593 12.454 23.79 12.734C23.2207 13.0047 22.5347 13.14 21.732 13.14ZM21.732 11.95C22.4507 11.95 23.034 11.7353 23.482 11.306C23.9393 10.8767 24.1867 10.1813 24.224 9.22C24.2427 8.8 24.252 8.42667 24.252 8.1C24.252 7.764 24.2427 7.39067 24.224 6.98C24.2053 6.336 24.084 5.81333 23.86 5.412C23.6453 5.01067 23.356 4.71667 22.992 4.53C22.628 4.34333 22.208 4.25 21.732 4.25C21.2747 4.25 20.864 4.34333 20.5 4.53C20.136 4.71667 19.842 5.01067 19.618 5.412C19.4033 5.81333 19.282 6.336 19.254 6.98C19.2447 7.39067 19.24 7.764 19.24 8.1C19.24 8.42667 19.2447 8.8 19.254 9.22C19.2913 10.1813 19.5387 10.8767 19.996 11.306C20.4533 11.7353 21.032 11.95 21.732 11.95ZM30.0446 13C29.9046 13 29.7926 12.9673 29.7086 12.902C29.6339 12.8367 29.5733 12.7527 29.5266 12.65L26.9366 6.154C26.9179 6.10733 26.9086 6.06067 26.9086 6.014C26.9086 5.93 26.9366 5.86 26.9926 5.804C27.0486 5.748 27.1186 5.72 27.2026 5.72H27.8746C27.9773 5.72 28.0566 5.748 28.1126 5.804C28.1686 5.86 28.2013 5.91133 28.2106 5.958L30.3526 11.474L32.4806 5.958C32.4993 5.91133 32.5319 5.86 32.5786 5.804C32.6346 5.748 32.7139 5.72 32.8166 5.72H33.5026C33.5773 5.72 33.6426 5.748 33.6986 5.804C33.7639 5.86 33.7966 5.93 33.7966 6.014C33.7966 6.06067 33.7873 6.10733 33.7686 6.154L31.1646 12.65C31.1273 12.7527 31.0666 12.8367 30.9826 12.902C30.9079 12.9673 30.7959 13 30.6466 13H30.0446ZM37.9008 13.14C36.9395 13.14 36.1741 12.846 35.6048 12.258C35.0355 11.6607 34.7228 10.8487 34.6668 9.822C34.6575 9.70067 34.6528 9.54667 34.6528 9.36C34.6528 9.164 34.6575 9.00533 34.6668 8.884C34.7041 8.22133 34.8581 7.64267 35.1288 7.148C35.3995 6.644 35.7681 6.25667 36.2348 5.986C36.7108 5.71533 37.2661 5.58 37.9008 5.58C38.6101 5.58 39.2028 5.72933 39.6788 6.028C40.1641 6.32667 40.5328 6.75133 40.7848 7.302C41.0368 7.85267 41.1628 8.49667 41.1628 9.234V9.472C41.1628 9.57467 41.1301 9.654 41.0648 9.71C41.0088 9.766 40.9341 9.794 40.8408 9.794H35.9968C35.9968 9.80333 35.9968 9.822 35.9968 9.85C35.9968 9.878 35.9968 9.90133 35.9968 9.92C36.0155 10.3027 36.0995 10.662 36.2488 10.998C36.3981 11.3247 36.6128 11.5907 36.8928 11.796C37.1728 12.0013 37.5088 12.104 37.9008 12.104C38.2368 12.104 38.5168 12.0527 38.7408 11.95C38.9648 11.8473 39.1468 11.7353 39.2868 11.614C39.4268 11.4833 39.5201 11.3853 39.5668 11.32C39.6508 11.1987 39.7161 11.1287 39.7628 11.11C39.8095 11.082 39.8841 11.068 39.9868 11.068H40.6588C40.7521 11.068 40.8268 11.096 40.8828 11.152C40.9481 11.1987 40.9761 11.2687 40.9668 11.362C40.9575 11.502 40.8828 11.6747 40.7428 11.88C40.6028 12.076 40.4021 12.272 40.1408 12.468C39.8795 12.664 39.5621 12.8273 39.1888 12.958C38.8155 13.0793 38.3861 13.14 37.9008 13.14ZM35.9968 8.828H39.8328V8.786C39.8328 8.366 39.7535 7.99267 39.5948 7.666C39.4455 7.33933 39.2261 7.08267 38.9368 6.896C38.6475 6.7 38.3021 6.602 37.9008 6.602C37.4995 6.602 37.1541 6.7 36.8648 6.896C36.5848 7.08267 36.3701 7.33933 36.2208 7.666C36.0715 7.99267 35.9968 8.366 35.9968 8.786V8.828ZM43.1588 13C43.0654 13 42.9861 12.972 42.9208 12.916C42.8648 12.8507 42.8368 12.7713 42.8368 12.678V6.056C42.8368 5.96267 42.8648 5.88333 42.9208 5.818C42.9861 5.75267 43.0654 5.72 43.1588 5.72H43.8028C43.8961 5.72 43.9754 5.75267 44.0408 5.818C44.1061 5.88333 44.1388 5.96267 44.1388 6.056V6.672C44.3254 6.35467 44.5821 6.11667 44.9088 5.958C45.2354 5.79933 45.6274 5.72 46.0848 5.72H46.6448C46.7381 5.72 46.8128 5.75267 46.8688 5.818C46.9248 5.874 46.9528 5.94867 46.9528 6.042V6.616C46.9528 6.70933 46.9248 6.784 46.8688 6.84C46.8128 6.896 46.7381 6.924 46.6448 6.924H45.8048C45.3008 6.924 44.9041 7.07333 44.6148 7.372C44.3254 7.66133 44.1808 8.058 44.1808 8.562V12.678C44.1808 12.7713 44.1481 12.8507 44.0828 12.916C44.0174 12.972 43.9381 13 43.8448 13H43.1588ZM51.8511 13.14C51.0578 13.14 50.3765 13.0047 49.8071 12.734C49.2378 12.454 48.7991 12.0293 48.4911 11.46C48.1831 10.8813 48.0105 10.158 47.9731 9.29C47.9638 8.87933 47.9591 8.48733 47.9591 8.114C47.9591 7.73133 47.9638 7.33467 47.9731 6.924C48.0105 6.06533 48.1878 5.35133 48.5051 4.782C48.8318 4.20333 49.2798 3.774 49.8491 3.494C50.4278 3.20467 51.0951 3.06 51.8511 3.06C52.6165 3.06 53.2838 3.20467 53.8531 3.494C54.4318 3.774 54.8845 4.20333 55.2111 4.782C55.5378 5.35133 55.7151 6.06533 55.7431 6.924C55.7618 7.33467 55.7711 7.73133 55.7711 8.114C55.7711 8.48733 55.7618 8.87933 55.7431 9.29C55.7151 10.158 55.5425 10.8813 55.2251 11.46C54.9171 12.0293 54.4785 12.454 53.9091 12.734C53.3398 13.0047 52.6538 13.14 51.8511 13.14ZM51.8511 11.95C52.5698 11.95 53.1531 11.7353 53.6011 11.306C54.0585 10.8767 54.3058 10.1813 54.3431 9.22C54.3618 8.8 54.3711 8.42667 54.3711 8.1C54.3711 7.764 54.3618 7.39067 54.3431 6.98C54.3245 6.336 54.2031 5.81333 53.9791 5.412C53.7645 5.01067 53.4751 4.71667 53.1111 4.53C52.7471 4.34333 52.3271 4.25 51.8511 4.25C51.3938 4.25 50.9831 4.34333 50.6191 4.53C50.2551 4.71667 49.9611 5.01067 49.7371 5.412C49.5225 5.81333 49.4011 6.336 49.3731 6.98C49.3638 7.39067 49.3591 7.764 49.3591 8.1C49.3591 8.42667 49.3638 8.8 49.3731 9.22C49.4105 10.1813 49.6578 10.8767 50.1151 11.306C50.5725 11.7353 51.1511 11.95 51.8511 11.95ZM57.9518 13C57.8584 13 57.7791 12.972 57.7138 12.916C57.6578 12.8507 57.6298 12.7713 57.6298 12.678V6.042C57.6298 5.94867 57.6578 5.874 57.7138 5.818C57.7791 5.75267 57.8584 5.72 57.9518 5.72H58.6098C58.7031 5.72 58.7778 5.75267 58.8338 5.818C58.8991 5.874 58.9318 5.94867 58.9318 6.042V6.658C59.1744 6.34067 59.4778 6.084 59.8418 5.888C60.2151 5.68267 60.6911 5.58 61.2698 5.58C61.8764 5.58 62.3898 5.71533 62.8098 5.986C63.2391 6.24733 63.5611 6.616 63.7758 7.092C63.9904 7.55867 64.0978 8.10467 64.0978 8.73V12.678C64.0978 12.7713 64.0698 12.8507 64.0138 12.916C63.9578 12.972 63.8831 13 63.7897 13H63.0898C62.9964 13 62.9171 12.972 62.8518 12.916C62.7958 12.8507 62.7678 12.7713 62.7678 12.678V8.8C62.7678 8.14667 62.6091 7.638 62.2918 7.274C61.9744 6.90067 61.5078 6.714 60.8918 6.714C60.3131 6.714 59.8464 6.90067 59.4918 7.274C59.1464 7.638 58.9738 8.14667 58.9738 8.8V12.678C58.9738 12.7713 58.9411 12.8507 58.8758 12.916C58.8198 12.972 58.7451 13 58.6517 13H57.9518ZM69.018 13.14C68.0567 13.14 67.2913 12.846 66.722 12.258C66.1527 11.6607 65.84 10.8487 65.784 9.822C65.7747 9.70067 65.77 9.54667 65.77 9.36C65.77 9.164 65.7747 9.00533 65.784 8.884C65.8213 8.22133 65.9753 7.64267 66.246 7.148C66.5167 6.644 66.8853 6.25667 67.352 5.986C67.828 5.71533 68.3833 5.58 69.018 5.58C69.7273 5.58 70.32 5.72933 70.796 6.028C71.2813 6.32667 71.65 6.75133 71.902 7.302C72.154 7.85267 72.28 8.49667 72.28 9.234V9.472C72.28 9.57467 72.2473 9.654 72.182 9.71C72.126 9.766 72.0513 9.794 71.958 9.794H67.114C67.114 9.80333 67.114 9.822 67.114 9.85C67.114 9.878 67.114 9.90133 67.114 9.92C67.1327 10.3027 67.2167 10.662 67.366 10.998C67.5153 11.3247 67.73 11.5907 68.01 11.796C68.29 12.0013 68.626 12.104 69.018 12.104C69.354 12.104 69.634 12.0527 69.858 11.95C70.082 11.8473 70.264 11.7353 70.404 11.614C70.544 11.4833 70.6373 11.3853 70.684 11.32C70.768 11.1987 70.8333 11.1287 70.88 11.11C70.9267 11.082 71.0013 11.068 71.104 11.068H71.776C71.8693 11.068 71.944 11.096 72 11.152C72.0653 11.1987 72.0933 11.2687 72.084 11.362C72.0747 11.502 72 11.6747 71.86 11.88C71.72 12.076 71.5193 12.272 71.258 12.468C70.9967 12.664 70.6793 12.8273 70.306 12.958C69.9327 13.0793 69.5033 13.14 69.018 13.14ZM67.114 8.828H70.95V8.786C70.95 8.366 70.8707 7.99267 70.712 7.666C70.5627 7.33933 70.3433 7.08267 70.054 6.896C69.7647 6.7 69.4193 6.602 69.018 6.602C68.6167 6.602 68.2713 6.7 67.982 6.896C67.702 7.08267 67.4873 7.33933 67.338 7.666C67.1887 7.99267 67.114 8.366 67.114 8.786V8.828Z" fill="white"/>
<path d="M8.5 8.64863C8.5 11.4475 6.62723 13.554 4.5 13.554C2.37277 13.554 0.5 11.4475 0.5 8.64863C0.5 5.84972 2.37277 3.74323 4.5 3.74323C6.62723 3.74323 8.5 5.84972 8.5 8.64863Z" stroke="white"/>
<ellipse cx="8.5" cy="8.64863" rx="4.5" ry="5.40541" fill="white"/>
</svg>
