<svg width="44" height="44" viewBox="0 0 44 44" fill="none" xmlns="http://www.w3.org/2000/svg">
<g clip-path="url(#clip0_24_68)">
<path d="M37.2311 0H6.7692C5.36927 0 4.23071 1.13856 4.23071 2.53849V41.4618C4.23071 42.8614 5.36927 44.0003 6.7692 44.0003H37.2311C38.6307 44.0003 39.7695 42.8617 39.7695 41.4618V2.53849C39.7693 1.13856 38.6307 0 37.2311 0ZM36.1864 1.80378C36.8573 1.80378 37.3996 2.34742 37.3996 3.01942C37.3996 3.69143 36.8573 4.23425 36.1864 4.23425C35.5152 4.23425 34.9702 3.69143 34.9702 3.01942C34.9702 2.34742 35.5152 1.80378 36.1864 1.80378ZM32.1009 1.80378C32.7721 1.80378 33.3171 2.34742 33.3171 3.01942C33.3171 3.69143 32.7734 4.23425 32.1009 4.23425C31.43 4.23425 30.8861 3.69143 30.8861 3.01942C30.8861 2.34742 31.4302 1.80378 32.1009 1.80378ZM28.0159 1.80378C28.6868 1.80378 29.2321 2.34742 29.2321 3.01942C29.2321 3.69143 28.6882 4.23425 28.0159 4.23425C27.3447 4.23425 26.8027 3.69143 26.8027 3.01942C26.8027 2.34742 27.3447 1.80378 28.0159 1.80378ZM38.077 41.4618C38.077 41.9278 37.6971 42.3078 37.2311 42.3078H6.7692C6.30401 42.3078 5.92295 41.9278 5.92295 41.4618V5.19178H38.077V41.4618Z" fill="white"/>
<path d="M23.6924 29.6153H10.1539V31.3076H23.6924V29.6153Z" fill="white"/>
<path d="M23.6924 24.6971H10.1539V26.3894H23.6924V24.6971Z" fill="white"/>
<path d="M33.8463 19.7797H10.1539V21.472H33.8463V19.7797Z" fill="white"/>
<path d="M33.8463 14.8624H10.1539V16.5546H33.8463V14.8624Z" fill="white"/>
<path d="M33.8463 9.94388H10.1539V11.6361H33.8463V9.94388Z" fill="white"/>
</g>
<defs>
<clipPath id="clip0_24_68">
<rect width="44" height="44" fill="white"/>
</clipPath>
</defs>
</svg>
