<svg width="17" height="17" viewBox="0 0 17 17" fill="none" xmlns="http://www.w3.org/2000/svg">
<g clip-path="url(#clip0_21_60)">
<path fill-rule="evenodd" clip-rule="evenodd" d="M6.79414 9.02932C5.54614 10.2176 3.52233 10.2176 2.27433 9.02932L0.968001 7.78546C0.344 7.1913 0.344 6.22816 0.968001 5.634C1.592 5.03984 2.6043 5.03984 3.2283 5.634C4.09759 6.46172 5.05077 6.38564 5.66358 5.80137C6.28119 5.21329 6.3555 4.30801 5.48381 3.47878C4.85981 2.88462 4.85981 1.92073 5.48381 1.32657C6.10861 0.732411 7.12012 0.732411 7.74412 1.32657L9.05365 2.57346C10.3017 3.76177 10.3017 5.6888 9.05365 6.87712L16.0096 13.5011C17.5044 14.9237 15.2433 17.0744 13.75 15.6526L6.79414 9.02932Z" fill="#B8B8B8"/>
</g>
<defs>
<clipPath id="clip0_21_60">
<rect width="16" height="16" fill="white" transform="translate(0.5 0.5)"/>
</clipPath>
</defs>
</svg>
